<svg width="450" height="524" viewBox="0 0 450 524" fill="none" xmlns="http://www.w3.org/2000/svg">
<path d="M442.999 130C431.999 339.5 384.999 360.5 331.999 373.5C222.342 400.397 243.499 541.5 275.499 520" stroke="#DCDEE4" stroke-width="3"/>
<path d="M447.5 0.5C454 108 416.5 156 369 196C314.879 241.576 325.732 258.443 348 338.5C369 414 288.05 459.333 226 483.5" stroke="#EBEEF2" stroke-width="3"/>
<path d="M0.0117188 479.999C131.412 513.975 199.126 495.576 226.544 484.898C227.113 484.676 227.683 484.453 228.256 484.228L232.878 482.382C237.945 480.329 243.11 478.137 248.311 475.802L251.353 474.421C259.06 470.885 266.82 467.032 274.43 462.848L267.248 463.297C262.042 466.023 256.784 468.6 251.539 471.032L248.451 472.447C241.565 475.569 234.723 478.442 228.07 481.076L223.256 482.942C195.779 493.211 131.361 509.244 9.84327 479.384L0.0117188 479.999Z" fill="#EBEEF2"/>
<path fill-rule="evenodd" clip-rule="evenodd" d="M248.945 490.667C242.762 488.405 235.817 486.24 228.254 484.226L228.069 484.299L223.255 482.94C199.419 477.015 170.141 472.61 139.52 471.278L162.467 469.844C186.588 472.096 209.173 476.11 228.069 481.074L232.877 482.38C238.514 483.964 243.782 485.631 248.616 487.358C248.313 483.671 248.203 479.801 248.31 475.8L248.449 472.446C248.597 469.815 248.838 467.137 249.179 464.424L252.218 464.234C251.919 466.526 251.694 468.794 251.538 471.03L251.352 474.42C251.158 479.333 251.299 484.061 251.73 488.502C264.517 493.331 274.145 498.664 278.97 504.086C281.457 506.88 282.844 509.901 282.432 513.014C282.021 516.122 279.874 518.866 276.335 521.244C273.03 523.464 269.679 524.184 266.469 523.43C263.302 522.687 260.501 520.562 258.136 517.546C253.549 511.696 250.284 502.102 248.945 490.667ZM260.497 515.695C256.579 510.699 253.527 502.306 252.119 491.863C264.07 496.503 272.581 501.42 276.729 506.08C278.914 508.536 279.71 510.716 279.458 512.62C279.205 514.529 277.84 516.618 274.662 518.754C271.915 520.599 269.407 521.038 267.155 520.51C264.861 519.971 262.597 518.373 260.497 515.695Z" fill="#DCDEE4"/>
<circle cx="294.029" cy="391.021" r="5.5" transform="rotate(179.796 294.029 391.021)" fill="#DCDEE4" stroke="#DCDEE4"/>
<circle cx="275.022" cy="408.021" r="5.5" transform="rotate(179.796 275.022 408.021)" fill="#DCDEE4" stroke="#DCDEE4"/>
<circle cx="333.026" cy="245.025" r="6.5" transform="rotate(179.796 333.026 245.025)" fill="#EBEEF2" stroke="#EBEEF2"/>
</svg>
