<svg width="973" height="482" viewBox="0 0 973 482" fill="none" xmlns="http://www.w3.org/2000/svg">
<path d="M105.953 122.689C103.282 124.063 100.359 124.878 97.3617 125.084C94.3648 125.29 91.3573 124.883 88.523 123.888C85.6887 122.893 83.0872 121.33 80.8773 119.295C78.6675 117.26 76.8957 114.797 75.6703 112.054C74.445 109.311 73.7917 106.348 73.7504 103.344C73.7092 100.341 74.2809 97.3603 75.4305 94.5851C76.5801 91.81 78.2835 89.2983 80.4367 87.2037C82.5898 85.1091 85.1475 83.4755 87.9534 82.4027L78.9534 62.2695C73.5018 64.5253 68.5578 67.8511 64.4136 72.0502C60.2694 76.2494 57.0092 81.2368 54.8256 86.7175C52.6421 92.1982 51.5795 98.061 51.7007 103.959C51.822 109.858 53.1245 115.672 55.5315 121.058C57.9384 126.445 61.4008 131.294 65.714 135.319C70.0273 139.345 75.1038 142.464 80.6435 144.494C86.1832 146.524 92.0737 147.423 97.9667 147.137C103.86 146.852 109.636 145.388 114.953 142.832L105.953 122.689Z" fill="#F2A84C"/>
<path d="M513.066 259.463L479.693 338.338C478.43 341.325 476.112 343.743 473.18 345.131C470.249 346.519 466.909 346.779 463.798 345.862L331.593 306.924L314.808 301.981L236.562 278.937C232.631 277.777 228.968 275.854 225.78 273.278C222.592 270.702 219.943 267.523 217.984 263.923C216.025 260.323 214.794 256.373 214.362 252.297C213.929 248.222 214.304 244.101 215.464 240.171C216.624 236.24 218.548 232.576 221.124 229.389C223.7 226.201 226.879 223.552 230.479 221.593C234.079 219.634 238.029 218.403 242.105 217.971C246.181 217.539 250.302 217.913 254.233 219.073L429.461 270.897C451.506 277.412 475.143 275.957 496.222 266.785L513.066 259.463Z" fill="#6E9EF9"/>
<path opacity="0.61" d="M331.596 306.926L314.811 301.984L236.565 278.939C231.551 277.469 226.986 274.762 223.291 271.067C219.596 267.372 216.888 262.807 215.418 257.793L283.193 277.956C301.498 283.408 318.142 293.369 331.596 306.926Z" fill="#2448B1"/>
<path d="M232.284 78.6987L191.09 138.715L131.066 97.5287L172.259 37.5078L183.861 45.4696L189.689 49.4677L215.848 67.4174L219.723 70.0829L232.284 78.6987Z" fill="#4A86F7"/>
<path d="M269.137 199.796C277.639 189.798 283.912 178.101 287.535 165.487C291.158 152.873 292.048 139.63 290.146 126.645L107.094 153.259C108.968 166.25 113.592 178.691 120.657 189.751C127.723 200.812 137.067 210.239 148.066 217.401C139.563 227.398 133.29 239.094 129.667 251.707C126.044 264.321 125.154 277.562 127.056 290.548L310.123 263.933C308.248 250.942 303.622 238.501 296.553 227.44C289.485 216.38 280.138 206.955 269.137 199.796Z" fill="white"/>
<path d="M172.982 167.355L171.201 168.014C170.129 168.526 169.042 169.052 172.982 167.355Z" fill="#2448B1"/>
<path d="M120.938 190.2L121.06 190.392C123.077 189.467 121.96 189.831 120.938 190.2Z" fill="#2448B1"/>
<path d="M150.786 178.488C143.478 180.854 136.268 184.601 121.106 190.433C125.138 196.613 129.897 202.288 135.28 207.336C136.023 206.652 136.155 206.352 143.429 201.341L143.601 201.508C148.519 197.928 149.995 196.394 154.032 193.905C158.783 190.379 145.578 199.452 156.904 191.412C158.975 190.104 163.337 187.138 166.627 184.881C169.878 182.472 164.773 185.865 162.098 187.763L161.399 188.255L162.098 187.763C178.327 176.241 172.711 181.277 187.627 170.389C182.281 173.949 191.743 166.946 179.335 175.68C185.183 171.387 191.193 167.743 197.227 163.179L193.376 166.263C195.604 164.704 198.043 162.85 199.229 161.97L198.86 162.51C200.04 161.602 201.206 160.73 202.356 159.894L204.919 158.055L205.302 157.794C205.435 157.713 205.553 157.61 205.651 157.489C205.737 157.364 205.782 157.216 205.782 157.064C205.782 156.912 205.737 156.764 205.651 156.639C205.569 156.519 205.451 156.429 205.314 156.381C205.177 156.334 205.028 156.331 204.889 156.373C204.624 156.462 204.363 156.575 204.107 156.678L203.124 157.091L201.476 157.804C200.414 158.296 199.43 158.743 198.525 159.211C201.938 157.362 192.088 161.861 188.591 163.11C190.824 162.097 193.711 160.883 196.622 159.668L204.142 156.57L204.668 156.344C204.825 156.266 204.99 156.205 205.16 156.162C205.314 156.137 205.472 156.151 205.619 156.203C205.766 156.256 205.897 156.345 206.001 156.462C206.149 156.621 206.249 156.819 206.291 157.032C206.325 157.189 206.325 157.283 206.374 157.322C206.463 157.197 206.521 157.053 206.543 156.901C206.566 156.749 206.553 156.594 206.505 156.449C206.458 156.303 206.376 156.17 206.268 156.062C206.16 155.953 206.028 155.871 205.883 155.822C205.59 155.748 205.28 155.789 205.017 155.935L204.21 156.285C203.488 156.594 201.751 157.312 200.276 157.863C198.22 158.758 197.045 159.255 199.701 158.075L200.276 157.863L202.583 156.85L203.158 156.594L203.561 156.408L204.279 156.068C204.78 155.816 205.294 155.591 205.819 155.395C205.554 155.444 205.297 155.525 205.051 155.635L204.328 155.916L202.819 156.511L201.112 157.199L197.935 158.512C195.919 159.358 194.084 160.15 192.368 160.902C188.925 162.407 185.975 163.76 182.857 165.073L194.532 160.214C193.735 160.961 189.284 162.427 186.117 164.045C180.176 166.243 175.706 168.392 170.871 170.226C172.13 169.69 172.219 169.656 173.483 169.125C160.721 174.338 156.924 175.203 151.844 177.264C146.842 179.231 137.478 183.298 140.96 182.054C136.932 183.834 157.888 175.046 150.786 178.488Z" fill="#2448B1"/>
<path d="M276.25 144.184C276.05 144.241 275.846 144.289 275.641 144.326C277.372 144.154 276.378 144.223 276.25 144.184Z" fill="#2448B1"/>
<path d="M199.49 201.195C200.661 199.41 201.723 197.585 202.726 195.785L201.895 196.159L201.404 197.054C201.3 197.133 201.448 196.808 201.743 196.233C200.385 196.828 198.708 197.497 195.748 198.539C197.012 198.047 197.223 197.934 198.477 197.442L193.977 199.06C193.628 199.552 187.092 202.159 180.581 204.863C174.069 207.568 167.573 210.361 167.233 210.853C160.865 213.278 166.742 210.853 174.679 207.199L167.917 209.87C170.622 208.694 172.919 207.784 175.786 206.511C166.889 209.914 158.794 213.789 154.147 216.002C150.778 217.369 156.566 214.394 147.114 218.653L147.015 218.697C133.979 234.598 126.623 254.395 126.114 274.951C129.557 272.694 133.122 270.23 137.425 267.082C137.037 267.333 136.934 267.417 137.622 266.935L137.425 267.082C138.025 266.694 139.279 265.892 139.019 266.192C144.271 262.175 151.171 255.757 149.135 257.158L152.681 254.183C153.63 253.401 154.378 252.767 155.091 252.147C156.512 250.903 157.869 249.802 160.235 247.515C158.268 249.251 157.348 249.974 157.127 250.17C157.438 249.859 157.766 249.565 158.11 249.29C159.586 247.972 162.074 245.646 162.369 245.149C167.174 240.453 164.169 243.635 166.442 241.54C167.377 240.596 168.257 239.6 169.078 238.555C168.802 238.805 168.458 239.12 168.01 239.538C167.563 239.956 167.027 240.522 166.269 241.186C167.381 240.138 168.064 239.42 168.502 239.017C168.94 238.614 169.092 238.481 169.078 238.525C170.607 237.143 169.328 238.687 168.094 240.173C166.86 241.658 165.664 243.03 167.519 241.446C168.163 240.896 169.264 239.823 170.602 238.55L172.727 236.494C173.45 235.756 174.202 235.019 174.925 234.252C175.648 233.484 176.376 232.776 177.045 232.088L178.835 230.16L180.802 228.011C181.786 226.718 181.835 226.044 181.294 226.128C180.753 226.211 179.484 227.042 177.768 228.719C178.528 227.733 179.36 226.804 180.256 225.941C181.525 224.544 183.005 222.921 183.95 221.795C184.673 221.008 185.307 220.236 185.917 219.489C186.527 218.741 187.072 218.043 187.604 217.354C188.135 216.666 188.631 216.017 189.109 215.387L190.446 213.459L193.038 209.688C193.884 208.389 194.779 207.057 195.797 205.606C194.813 207.125 193.884 208.66 192.9 210.165C193.284 209.722 194.867 207.307 196.535 204.844C196.953 204.234 197.341 203.599 197.71 202.99C198.079 202.38 198.433 201.8 198.748 201.273C199.382 200.221 199.869 199.395 200.066 199.031C200.287 198.829 197.651 203.87 199.49 201.195ZM155.617 215.771C153.615 216.651 151.496 217.61 149.612 218.426C148.894 218.397 151.353 217.585 155.617 215.771C156.247 215.491 156.861 215.225 157.456 214.969L155.617 215.771ZM174.276 234.861L173.72 234.724L175.033 233.303L174.276 234.861Z" fill="#2448B1"/>
<path d="M260.409 186.433C260.409 186.556 260.379 186.674 260.359 186.797C261.692 186.084 262.189 185.774 260.409 186.433Z" fill="#2448B1"/>
<path d="M117.551 172.258C115.46 173.763 116.734 173.001 117.585 172.489C115.436 173.871 114.142 174.771 113.203 175.475C115.158 180.172 117.498 184.7 120.197 189.013C132.251 184.095 151.755 176.06 157.396 174.147C152.114 175.952 157.731 173.827 162.639 171.688L158.055 173.247L169.258 168.713L171.565 167.754C171.758 167.66 171.961 167.588 172.17 167.537C174.068 166.775 171.781 167.872 176.626 165.973C184.248 162.885 184.558 162.585 188.689 160.746L187.499 161.184L192.653 159.054C196.465 157.51 179.316 164.798 191.778 159.876C191.852 159.802 193.676 158.931 195.909 157.938C198.142 156.945 200.783 155.823 202.489 155.238C196.145 157.805 197.02 157.663 199.381 156.792L204.756 154.609C204.978 154.535 205.214 154.441 205.41 154.397L205.72 154.318L205.996 154.264C206.341 154.17 206.701 154.139 207.058 154.171C207.46 154.252 207.83 154.449 208.122 154.737C208.414 155.025 208.615 155.393 208.701 155.794C208.66 155.492 208.561 155.202 208.407 154.939C208.253 154.676 208.049 154.447 207.806 154.264C207.586 154.103 207.337 153.987 207.073 153.92C206.845 153.868 206.613 153.843 206.379 153.846C206.585 153.827 206.793 153.827 206.999 153.846C207.223 153.863 207.442 153.916 207.648 154.004C208.116 154.22 208.506 154.575 208.765 155.022C209.027 155.466 209.141 155.983 209.089 156.497C209.067 156.727 209.006 156.952 208.907 157.161C208.816 157.345 208.703 157.518 208.573 157.677C208.257 158.109 207.879 158.492 207.451 158.813L205.809 159.969L203.532 161.562L194.965 167.562L177.575 179.699C165.886 187.856 154.032 196.162 142.013 204.617C142.072 204.425 139.45 206.235 136.367 208.389C139.658 211.374 143.157 214.122 146.837 216.611C149.06 215.598 151.844 214.369 155.517 212.795L155.139 213.041C160.322 210.782 165.517 208.55 170.724 206.343C170.812 206.717 177.462 203.786 184.76 200.707C192.058 197.629 200.006 194.432 202.548 193.916L203.124 193.655C203.532 192.908 203.974 192.096 204.412 191.28C205.951 188.202 207.481 185.133 207.147 185.413C209.798 180.192 213.025 175.283 216.766 170.778C216.958 170.537 217.135 170.316 217.287 170.144L216.766 170.778C216.471 171.147 216.142 171.575 215.783 172.027L214.897 173.168L214.11 174.299C213.127 175.706 212.551 176.611 213.432 175.529L214.868 173.562C215.251 173.026 215.596 172.637 215.851 172.308C216.378 171.663 216.653 171.324 216.879 171.073C217.327 170.542 217.627 170.316 219.402 168.383C218.699 169.268 217.887 170.208 217.101 171.27C216.314 172.332 215.473 173.458 214.701 174.683C214.307 175.293 213.899 175.902 213.506 176.527L212.374 178.46L211.809 179.443L211.283 180.427C210.938 181.091 210.594 181.755 210.25 182.394C208.44 186.22 206.807 189.913 205.529 192.652L205.73 192.574C206.674 190.769 207.579 188.944 208.494 187.13L209.728 185.162C212.149 180.245 214.979 175.541 218.187 171.098C218.896 170.173 219.55 169.283 220.179 168.482L221.95 166.313C223.061 165.049 223.917 164.061 224.478 163.47C227.158 161.169 228.21 160.653 228.348 160.741C228.486 160.83 227.792 161.616 227.178 162.172C228.53 161.115 229.686 160.161 230.777 159.389C231.318 158.99 231.815 158.607 232.302 158.262L233.684 157.279C234.55 156.649 235.356 156.128 236.113 155.622L237.215 154.879L238.312 154.196C239.888 153.197 241.513 152.278 243.181 151.442C244.164 150.979 245.222 150.433 246.486 149.927C247.115 149.666 247.774 149.381 248.492 149.106L250.808 148.27L248.32 149.106L245.861 150.03C248.54 148.902 251.275 147.909 254.054 147.055C257.162 146.121 259.764 145.501 259.125 145.58C261.854 145.063 264.397 144.896 261.426 145.668C265.273 144.605 269.172 143.738 273.107 143.072L273.461 143.008L273.107 143.072C271.853 143.332 272.851 143.622 272.153 143.785C273.377 143.647 274.508 143.47 275.467 143.293C276.426 143.116 277.213 142.998 277.754 142.87C278.679 142.663 278.861 142.506 277.911 142.536L277.341 142.565C277.567 142.565 277.754 142.541 277.911 142.536C280.021 142.422 281.521 142.373 282.677 142.349C283.931 142.314 284.782 142.3 285.574 142.3C286.365 142.3 287.103 142.3 288.131 142.324C288.903 142.324 289.838 142.373 291.082 142.432C291.082 142.29 291.082 142.147 291.082 142C290.738 141.975 290.393 141.955 290.069 141.95H291.087C291.19 136.835 290.87 131.719 290.133 126.656L154.475 146.376C142.111 155.14 129.777 163.844 117.551 172.258ZM228.318 159.88C231.682 157.456 231.953 157.274 232.253 156.969C232.56 156.692 232.889 156.441 233.236 156.217C233.856 155.764 234.958 155.1 236.954 153.964C239.369 153.064 236.679 154.235 232.14 157.407L231.943 157.549C231.555 157.83 230.959 158.287 229.882 159.094C230.605 158.548 231.274 158.012 231.943 157.549L232.14 157.407C233.04 156.768 231.604 157.638 230.232 158.617C228.859 159.595 227.532 160.603 228.318 159.88Z" fill="#2448B1"/>
<path d="M112.871 173.212C113.127 172.996 113.405 172.81 113.703 172.657L112.871 173.212L112.429 173.532L112.547 173.837C113.368 173.291 114.327 172.642 115.443 171.87L116.865 170.636L118.552 169.623C124.606 165.364 116.619 170.655 122.678 166.392C125.983 164.626 142.935 152.332 151.104 146.863H150.951C148.001 148.929 144.843 151.156 147.105 149.322C148.374 148.481 149.186 147.965 150.794 146.863L107.098 153.217C108.102 160.147 109.889 166.941 112.424 173.468L112.871 173.212Z" fill="#2448B1"/>
<path d="M120.83 190.015L121.774 189.602L120.82 189.995L120.83 190.015Z" fill="#2448B1"/>
<path d="M280.117 240.29C280.708 240.142 280.531 240.176 280.004 240.29C279.96 240.317 279.914 240.341 279.867 240.363L280.117 240.29Z" fill="#2448B1"/>
<path d="M207.69 186.19C208.182 185.158 208.615 184.223 208.998 183.407L209.524 182.261L209.982 181.322C210.523 180.205 210.754 179.62 210.582 179.753L209.352 181.912L208.216 184.125L206.003 188.492L204.902 190.69L204.351 191.777L203.761 192.844L203.367 193.552L204.193 193.203C204.911 191.954 205.502 190.695 206.082 189.524C206.662 188.354 207.193 187.203 207.69 186.19Z" fill="#2448B1"/>
<path d="M204.376 195.049L204.203 195.389C204.267 195.276 204.326 195.157 204.395 195.039L204.376 195.049Z" fill="#2448B1"/>
<path d="M250.833 201.329C252.748 198.607 254.481 195.761 256.022 192.811C256.877 190.918 257.005 190.279 256.868 190.456C256.73 190.633 256.273 191.592 255.584 192.802C254.296 195.078 252.848 197.261 251.251 199.332C253.364 196.559 255.122 193.533 256.484 190.323C256.686 189.831 256.863 189.339 257.025 188.848L256.356 189.044C254.664 189.89 253.592 190.451 253.223 190.584C252.855 190.716 253.312 190.461 253.971 190.092C252.525 190.766 251.227 191.4 250.558 191.744C250.859 191.7 251.152 191.614 251.428 191.488C249.83 192.177 249.825 192.133 250.558 191.744C249.943 191.828 252.279 190.515 254.807 189.167L253.587 189.659C247.066 192.851 239.768 196.741 245.719 194.144L246.978 193.588L247.391 193.406L248.404 192.959L248.955 192.718L249.963 192.275L251.104 191.784L249.963 192.275L248.955 192.718L248.404 192.959L247.391 193.406L246.978 193.588L245.699 194.134C243.017 195.331 240.351 196.559 237.702 197.818C233.173 200.306 231.338 201.393 229.243 202.598C228.201 203.198 227.099 203.842 225.589 204.742C224.079 205.642 222.147 206.812 219.55 208.524C218.901 208.784 221.679 206.935 219.722 208.032C215.945 210.609 211.288 213.658 207.717 216.638C206.155 217.91 204.698 219.306 203.36 220.813C202.618 221.618 201.997 222.525 201.516 223.508C200.906 224.494 200.474 225.579 200.237 226.714C200.194 226.953 200.165 227.195 200.148 227.437C200.148 227.609 200.148 227.727 200.148 227.826C200.148 228.017 200.207 228.14 200.232 228.46C200.232 228.617 200.291 228.858 200.321 229.178L200.38 229.734C200.414 229.94 200.458 230.171 200.503 230.437C200.468 230.339 200.419 230.191 200.399 230.225C200.385 230.297 200.385 230.37 200.399 230.442V230.702L200.493 231.081C200.94 232.724 201.968 233.968 203.316 234.46C204.162 234.789 203.143 234.538 202.607 234.224C202.347 234.061 202.155 233.958 202.288 234.081C202.437 234.222 202.602 234.346 202.78 234.45C203.202 234.711 203.666 234.899 204.152 235.005C205.302 235.203 206.479 235.187 207.624 234.956C208.722 234.757 209.801 234.464 210.85 234.081C212.801 233.383 214.695 232.534 216.516 231.543C220.099 229.574 223.549 227.371 226.843 224.949C236.827 217.08 222.289 227.949 230.733 221.334C231.572 220.832 232.383 220.285 233.163 219.697C234.955 218.317 236.669 216.84 238.297 215.271C239.527 213.992 240.019 213.397 240.727 212.581L244.351 208.489V208.981C248.069 204.86 250.612 201.221 250.833 201.329ZM246.786 205.347C247.769 204.24 248.753 203.119 249.707 201.968C248.739 203.286 247.689 204.543 246.564 205.73L246.786 205.347Z" fill="#2448B1"/>
<path d="M279.339 240.585C279.52 240.524 279.696 240.45 279.865 240.363C278.774 240.683 275.828 241.494 279.339 240.585Z" fill="#2448B1"/>
<path d="M257.437 187.492C254.41 188.886 251.399 190.305 248.402 191.751C249.622 191.259 251.442 190.502 253.586 189.656L257.343 187.827C257.373 187.738 257.407 187.6 257.437 187.492Z" fill="#2448B1"/>
<path d="M257.334 187.832L254.801 189.179L257.22 188.235C257.265 188.098 257.299 187.965 257.334 187.832Z" fill="#2448B1"/>
<path d="M268.402 183.688C266.09 184.597 264.025 185.473 262.215 186.279C264.757 185.281 266.995 184.366 268.402 183.688Z" fill="#2448B1"/>
<path d="M236.912 157.023C237.498 156.674 238.107 156.286 238.786 155.922C238.294 156.084 237.827 156.266 237.355 156.463C236.603 156.955 235.835 157.382 235.103 157.864L232.978 159.286C231.65 160.269 230.411 161.105 229.496 161.863C230.342 161.194 231.39 160.53 232.447 159.817C233.268 159.251 234.212 158.695 235.23 158.027C235.762 157.692 236.327 157.378 236.912 157.023Z" fill="#2448B1"/>
<path d="M273.504 179.945C277.148 178.238 280.355 176.935 284.028 175.519C288.245 165.422 290.625 154.654 291.056 143.721C290.289 143.76 289.517 143.799 288.75 143.849L287.048 143.578C283.507 143.78 279.568 143.972 275.633 144.345C274.05 144.66 270.356 145.176 266.648 145.919L263.442 146.598L260.545 147.301C258.789 147.793 257.417 148.166 256.861 148.397C255.778 148.595 254.709 148.863 253.66 149.199L251.924 149.75C251.339 149.956 250.758 150.183 250.183 150.399C247.871 151.265 245.757 152.214 244.375 152.632C243.804 152.912 243.15 153.237 242.452 153.615C241.753 153.994 240.976 154.368 240.209 154.815C240.667 154.564 241.167 154.397 241.684 154.323C241.684 154.397 241.055 154.702 239.516 155.504L238.803 155.902L240.091 155.445C240.376 155.42 239.398 155.907 237.883 156.694C237.14 157.107 236.24 157.564 235.311 158.095C234.381 158.626 233.403 159.192 232.483 159.797L230.658 161.036C230.073 161.439 229.527 161.862 228.976 162.265L227.993 163.047L228.588 162.556L227.934 163.047L227.29 163.583L225.952 164.71C225.46 165.098 225.037 165.555 224.54 166.018C224.044 166.48 223.527 167.001 223.006 167.552C220.637 169.808 218.465 172.263 216.514 174.889C214.465 177.686 212.62 180.628 210.996 183.692L208.537 188.467C207.888 189.711 207.249 190.96 206.57 192.2C208.075 191.6 209.821 190.921 211.626 190.233C215.56 188.757 219.785 187.228 222.391 186.298C222.327 186.274 223.075 185.969 224.85 185.349C225.249 185.28 224.216 185.649 222.391 186.298C222.824 186.237 223.249 186.132 223.66 185.984C227.65 184.471 231.726 183.196 235.867 182.168C240.183 181.036 244.563 180.159 248.983 179.541C251.353 179.217 252.052 179.192 251.865 179.123C251.1 179.064 250.332 179.064 249.568 179.123C250.876 179.013 252.19 178.97 253.502 178.996C254.241 179.008 254.977 179.073 255.706 179.192C256.523 179.308 257.317 179.548 258.061 179.905C258.955 180.341 259.665 181.08 260.063 181.99C260.152 182.226 260.226 182.468 260.284 182.713L260.373 183.328C260.435 183.733 260.468 184.143 260.471 184.553C260.485 185.002 260.473 185.452 260.437 185.9L261.032 185.659C261.342 185.31 261.725 184.921 263.363 184.046C265.001 183.171 267.902 181.804 273.273 179.571C271.63 180.314 269.038 181.435 270.135 181.046C271.232 180.658 273.725 179.546 274.561 179.173C275.678 178.833 272.245 180.314 273.504 179.945Z" fill="#2448B1"/>
<path d="M257.692 187.658C257.658 187.805 257.628 187.948 257.594 188.091L257.668 188.062C257.712 187.909 257.751 187.761 257.786 187.613L257.692 187.658Z" fill="#2448B1"/>
<path d="M257.691 187.648L257.79 187.598C257.82 187.495 257.844 187.392 257.869 187.293L257.765 187.342L257.691 187.648Z" fill="#2448B1"/>
<path d="M257.415 188.722C257.306 189.086 257.198 189.45 257.07 189.814C257.218 189.435 257.346 189.066 257.464 188.707L257.415 188.722Z" fill="#2448B1"/>
<path d="M258.063 187.449C258.063 187.36 258.102 187.266 258.117 187.178L257.895 187.281L257.836 187.572L258.063 187.449Z" fill="#2448B1"/>
<path d="M257.781 188.629L257.55 188.698L257.491 188.909C257.116 190.178 256.656 191.42 256.114 192.627C256.761 191.383 257.307 190.089 257.747 188.757C257.761 188.722 257.766 188.673 257.781 188.629Z" fill="#2448B1"/>
<path d="M258.151 186.85C258.207 186.418 258.228 185.982 258.215 185.547C258.156 185.881 258.077 186.363 257.969 186.929L258.151 186.85Z" fill="#2448B1"/>
<path d="M258.057 187.48L257.831 187.594C257.796 187.741 257.762 187.889 257.723 188.041L257.969 187.943C258.003 187.79 258.028 187.638 258.057 187.48Z" fill="#2448B1"/>
<path d="M155.534 274.23C152.386 275.042 150.768 275.44 155.322 274.299L155.534 274.23Z" fill="#2448B1"/>
<path d="M296.964 236.423L301.051 235.273L300.81 234.781C299.87 235.051 298.784 235.351 297.416 235.705C296.551 235.951 296.585 235.917 296.802 235.828C293.275 236.812 289.557 237.795 285.982 238.71L279.466 240.584C288.23 238.326 272.713 242.723 284.787 239.384C280.361 240.692 282.623 240.239 275.133 242.285C271.322 243.087 277.425 241.331 279.362 240.589C273.682 242.157 270.476 243.048 267.903 243.702L265.361 244.42L266.226 244.154L253.651 247.547C253.612 247.567 253.574 247.59 253.538 247.616C258.889 246.529 263 246.077 257.01 247.857C250.833 249.332 243.786 251.422 243.358 251.737C241.346 252.229 243.933 251.437 243.786 251.422L236.61 253.503C234.727 253.645 248.546 249.775 245.089 250.463C249.112 249.48 247.671 250.041 255.859 247.71C261.048 246.116 249.417 249.131 247.218 249.623C253.391 247.823 253.371 247.749 253.538 247.616L252.997 247.719L253.651 247.547C253.927 247.405 254.787 247.095 259.007 245.846C262.882 244.951 264.987 244.464 267.903 243.702L279.957 240.299L279.677 240.362L274.971 241.523C275.462 241.331 278.285 240.672 279.677 240.362L285.953 238.754C289.297 237.83 292.262 237.018 294.948 236.192C298.793 235.14 297.279 235.7 296.797 235.873L300.77 234.771L300.559 234.363C296.074 235.469 292.597 236.399 289.356 237.343C287.502 237.913 285.795 238.44 284.148 238.926C285.874 238.371 287.59 237.854 289.356 237.343C292.449 236.359 295.892 235.322 299.949 234.196C298.572 234.619 299.585 234.392 300.48 234.196C293.137 220.241 282.352 208.392 269.148 199.771C274.76 193.163 279.42 185.802 282.992 177.902C279.736 179.343 276.643 180.745 273.421 182.205C269.005 183.956 264.61 185.759 260.236 187.615C260.133 188.166 260.005 188.707 259.863 189.228C259.129 191.778 258.101 194.234 256.799 196.545C256.045 197.948 255.206 199.303 254.286 200.603C253.794 201.321 253.386 201.876 253.056 202.314C252.727 202.752 252.476 203.071 252.284 203.298C251.9 203.755 251.768 203.863 251.728 203.843C251.689 203.824 251.925 203.253 251.291 203.956C249.736 205.987 249.018 206.907 248.723 207.36C248.428 207.812 248.551 207.773 248.595 207.812C248.64 207.851 248.595 207.979 247.986 208.727C247.376 209.474 246.151 210.851 243.717 213.276C244.814 212.115 246.771 209.907 245.969 210.723C243.672 213.1 241.24 215.343 238.686 217.441C235.892 219.787 233.03 222.005 231.058 223.691C231.976 223.006 232.886 222.311 233.787 221.606C230.018 224.903 225.953 227.846 221.645 230.399C217.671 232.784 214.317 234.186 213.697 234.702C214.002 234.653 214.317 234.614 214.622 234.56C210.806 236.192 208.229 236.63 206.507 236.733C205.285 236.838 204.055 236.682 202.898 236.276C202.663 236.198 202.436 236.1 202.219 235.981L201.86 235.799C201.742 235.725 201.629 235.636 201.501 235.548L201.117 235.263L200.739 234.889C200.443 234.589 200.179 234.26 199.952 233.905C199.365 232.894 198.985 231.775 198.835 230.615C198.776 230.246 198.739 229.873 198.722 229.499C198.689 229.08 198.68 228.66 198.693 228.24C198.748 227.246 198.96 226.267 199.322 225.339L199.288 225.555C199.85 223.99 200.666 222.528 201.702 221.228C202.503 220.188 203.37 219.203 204.299 218.277C205.957 216.62 207.368 215.395 208.627 214.117C207.968 214.608 207.319 215.154 206.66 215.695C208.357 214.22 209.738 213.133 210.924 212.253C212.109 211.372 213.122 210.65 214.14 209.956C216.186 208.569 218.266 207.202 222.201 204.871C223.096 204.281 226.902 202.043 228.068 201.507C228.171 201.271 232.799 198.68 237.958 196.098C243.117 193.516 248.777 190.944 250.602 190.108C244.071 193.196 247.233 191.879 249.127 191.126C251.842 189.645 254.632 188.307 257.487 187.118C257.824 185.852 257.95 184.54 257.861 183.233C258.05 184.307 258.05 185.405 257.861 186.479C257.836 186.651 257.802 186.823 257.772 186.995L257.886 186.946C258.013 186.351 258.096 185.748 258.136 185.141C258.176 184.522 258.146 183.9 258.048 183.287C258.034 183.177 258.011 183.069 257.979 182.963C257.955 182.879 257.922 182.798 257.881 182.722C257.803 182.572 257.701 182.436 257.581 182.318C256.987 181.85 256.272 181.56 255.52 181.482C254.838 181.378 254.149 181.334 253.459 181.35C252.195 181.35 251.158 181.468 250.017 181.566L245.753 181.935C248.187 181.462 250.653 181.165 253.13 181.045C254.045 181.01 254.679 181.045 254.915 181.045C255.151 181.045 254.979 180.956 254.222 180.858C251.659 180.833 249.102 181.097 246.599 181.645C246.141 181.679 247.233 181.468 248 181.345C248.768 181.222 249.205 181.128 247.435 181.345C246.348 181.551 244.696 181.915 243.077 182.328C241.459 182.741 239.881 183.199 238.922 183.504L238.43 183.73C237.56 183.961 237.938 183.809 238.922 183.504L239.02 183.459C234.732 184.571 230.478 185.879 226.233 187.256L225.456 187.512L226.233 187.256C228.107 186.641 228.324 186.479 226.037 187.197C223.106 188.203 220.189 189.248 217.288 190.329L216.978 190.447L214.42 191.406L216.978 190.447L217.288 190.329C219.948 189.346 217.165 190.172 213.22 191.539C209.104 192.99 206.827 193.934 205.179 194.672C204.54 195.773 203.901 196.87 203.252 197.952C203.025 198.336 202.794 198.714 202.563 199.098C202.332 199.481 202.071 199.835 201.835 200.209C201.343 200.942 200.852 201.684 200.36 202.398C200.94 201.522 201.629 200.46 202.214 199.526C202.652 198.839 203.051 198.128 203.409 197.396C203.04 198.026 202.686 198.67 202.302 199.285L201.137 201.129L198.811 204.763C198.024 205.948 197.207 207.094 196.425 208.205C195.644 209.317 194.886 210.463 194.085 211.515L191.788 214.608C191.045 215.592 190.342 216.575 189.614 217.48C188.188 219.29 186.924 220.977 185.798 222.437L186.289 222.167C181.738 227.957 176.887 233.505 171.757 238.789L171.668 239.236C168.177 242.836 162.536 248.359 156.988 253.271C151.441 258.184 146.026 262.502 143.424 264.164C142.529 265.01 139.765 267.115 136.628 269.367C135.049 270.493 133.397 271.683 131.818 272.756L129.565 274.319L127.598 275.662L126.29 276.311L126.02 276.488C126.02 278.357 126.064 280.235 126.152 282.124L126.91 281.917L127.042 281.942L139.829 278.317C136.515 279.399 142.328 277.516 146.223 276.513C150.285 275.313 156.924 273.562 161.773 272.367L169.957 270.154C160.903 272.751 170.675 270.243 171.25 270.316L176.429 268.728C178.563 268.236 173.109 269.81 176.98 268.807C180.422 267.739 190.789 264.936 193.957 263.835C193.435 263.923 192.166 264.213 190.603 264.592C190.17 264.725 190.189 264.715 190.47 264.622L190.106 264.71L189.294 264.917L188.512 265.113L188.203 265.192L187.219 265.443L186.54 265.615L182.09 266.825L185.955 265.762C186.388 265.62 188.729 264.995 185.955 265.762C185.812 265.812 186.044 265.763 186.589 265.625L187.268 265.453L188.252 265.202L188.562 265.123L189.344 264.926L190.155 264.72L190.598 264.607C191.035 264.469 191.714 264.243 192.004 264.115L189.57 264.754C192.029 264.051 192.344 263.987 192.004 264.115C198.521 262.394 196.106 262.954 195.855 262.92C202.986 261.327 207.019 260.024 212.37 258.917C207.309 259.901 229.878 254.186 225.186 255.027C230.783 253.867 228.958 254.044 232.563 253.35C224.792 255.366 217.17 257.776 210.978 259.61L217.16 258.135C213.27 259.61 203.365 261.735 199.76 262.851C202.061 262.133 207.166 260.83 207.875 260.722L206.232 260.869C197.458 263.132 190.558 265.251 184.386 267.085C190.288 265.61 177.329 269.19 181.637 268.241L186.26 266.948C188.409 266.456 183.949 267.779 181.371 268.571C166.681 272.338 139.933 279.808 134.651 281.003C137.66 280.265 143.134 278.706 145.726 277.909L138.811 279.699C144.383 278.175 148.854 277.24 157.052 274.905C155.616 275.096 161.513 273.223 155.198 274.664C140.218 278.445 142.116 278.652 126.261 282.979C126.418 285.497 126.68 288.025 127.047 290.563L310.115 263.948C308.681 254.034 305.646 244.42 301.129 235.479L296.964 236.423ZM253.076 247.336L251.797 247.911L247.332 249.224L253.076 247.336ZM211.838 192.601L210.57 193.059L209.37 193.201L211.838 192.601ZM179.213 267.587C178.057 267.818 178.883 267.912 176.872 268.403C165.954 271.511 181.381 266.736 179.213 267.587ZM214.13 258.14C212.655 258.499 211.597 258.735 208.686 259.537L214.056 258.022L214.701 257.84L214.056 258.022C213.147 258.288 214.007 258.125 214.13 258.14ZM137.228 280.983L137.37 280.629C138.511 280.403 138.659 280.417 140.665 279.926L137.228 280.983ZM199.686 262.905C199.316 263.011 198.954 263.144 198.604 263.304C198.953 263.132 199.319 262.998 199.696 262.905H199.686ZM199.243 263.333C198.635 263.478 198.038 263.669 197.458 263.904L190.701 265.674C190.524 265.644 195.088 264.454 199.243 263.333C200.97 262.841 203.488 262.138 204.653 261.818C203.473 262.187 201.417 262.748 199.253 263.333H199.243ZM208.096 261.135L212.856 259.861L214.863 259.369L208.096 261.135ZM220.169 257.801L222.481 256.965L224.06 256.793L220.169 257.801ZM220.469 257.083C224.92 255.78 229.391 254.466 228.225 255.076L228.968 254.875C224.768 256.055 221.006 257.147 220.474 257.078L220.469 257.083ZM233.841 253.537C232.568 253.871 231.245 254.24 229.946 254.599C232.253 253.945 234.314 253.291 233.846 253.537H233.841ZM239.138 251.201L238.705 251.521L235.696 252.254L239.138 251.201ZM267.353 245.044C263.467 246.057 266.064 245.256 269.812 244.233L270.077 244.272C269.212 244.538 268.223 244.783 267.348 245.044H267.353Z" fill="#2448B1"/>
<path d="M104.874 82.9232L112.32 121.995C117.489 120.994 122.051 117.986 125.005 113.628C127.959 109.27 129.064 103.918 128.079 98.7467C127.093 93.575 124.097 89.0052 119.747 86.039C115.397 83.0728 110.049 81.9523 104.874 82.9232Z" fill="#2448B1"/>
<path d="M153.952 256.676C152.154 260.011 151.046 263.673 150.693 267.445C150.34 271.217 150.749 275.021 151.896 278.631C153.043 282.242 154.905 285.584 157.37 288.461C159.836 291.337 162.854 293.688 166.247 295.374L264.774 344.35L225.636 438.819C224.967 440.435 224.644 442.174 224.687 443.922C224.73 445.671 225.138 447.391 225.886 448.972C226.633 450.554 227.704 451.961 229.028 453.104C230.352 454.247 231.9 455.1 233.574 455.608L319.791 481.82L297.754 445.788C294.38 440.273 292.312 434.059 291.708 427.622C291.104 421.185 291.979 414.696 294.267 408.649L314.382 355.577C318.601 344.42 318.55 332.098 314.238 320.976C309.927 309.855 301.659 300.718 291.021 295.32L191.589 244.893C185.018 241.562 177.405 240.929 170.374 243.13C163.343 245.331 157.45 250.192 153.952 256.676Z" fill="#6E9EF9"/>
<path d="M89.2789 251.919C90.0611 252.562 91.0511 252.898 92.0633 252.864C93.0756 252.829 94.0405 252.427 94.7772 251.732L111.267 236.167L105.42 245.511C104.996 246.188 104.814 246.989 104.903 247.783C104.992 248.577 105.348 249.317 105.912 249.883C106.555 250.525 107.421 250.895 108.331 250.916C109.24 250.938 110.122 250.608 110.795 249.996L118.044 243.377L111.838 250.97C111.27 251.664 110.951 252.528 110.93 253.424C110.91 254.32 111.189 255.198 111.725 255.917C112.332 256.728 113.223 257.279 114.22 257.462C115.216 257.644 116.245 257.444 117.1 256.901L126.936 250.699L119.938 257.137C119.469 257.568 119.092 258.087 118.827 258.666C118.562 259.244 118.415 259.87 118.394 260.506C118.374 261.142 118.48 261.775 118.707 262.37C118.934 262.964 119.277 263.507 119.716 263.967C120.449 264.739 121.419 265.245 122.471 265.406C123.524 265.566 124.6 265.371 125.529 264.853L159.104 246.116C170.552 239.735 184.008 237.975 196.712 241.198L220.579 247.242C228.931 249.354 237.75 248.594 245.617 245.084C253.484 241.573 259.94 235.517 263.946 227.891L292.47 173.521C293.995 170.617 294.893 167.426 295.107 164.154C295.322 160.882 294.847 157.601 293.713 154.524C292.58 151.447 290.814 148.642 288.528 146.29C286.243 143.939 283.489 142.093 280.446 140.872C275.094 138.72 269.137 138.617 263.714 140.583C258.292 142.55 253.785 146.447 251.056 151.528L223.889 202.171L212.873 198.965C195.157 193.789 176.406 193.272 158.432 197.464C140.459 201.656 123.871 210.415 110.274 222.895C102.458 230.055 95.2252 237.826 88.6445 246.136C87.9734 246.991 87.6641 248.076 87.7826 249.157C87.9012 250.238 88.4383 251.229 89.2789 251.919Z" fill="#4A86F7"/>
<path d="M45.6203 200.107L92.0904 176.207C94.607 174.913 97.3582 174.139 100.18 173.931C103.002 173.723 105.837 174.084 108.516 174.994C111.196 175.904 113.665 177.343 115.776 179.227C117.887 181.111 119.598 183.4 120.807 185.959C123.14 190.9 123.464 196.554 121.71 201.729C119.955 206.904 116.26 211.196 111.403 213.699L47.14 246.84C42.9812 248.986 38.3858 250.149 33.7071 250.241C29.0283 250.334 24.3907 249.352 20.1505 247.372C15.9104 245.392 12.1806 242.467 9.2477 238.82C6.31481 235.174 4.25692 230.904 3.23217 226.338C-2.26123 201.823 -2.92024 167.556 18.9697 132.37C32.0599 111.392 52.3383 95.8958 76.0184 88.7744L86.2872 85.6664C87.1724 85.3976 88.1273 85.4814 88.9521 85.9002C89.777 86.3191 90.4081 87.0405 90.7134 87.9138C91.0101 88.7607 90.9793 89.6879 90.6272 90.5132C90.275 91.3386 89.6268 92.0024 88.8101 92.3742L58.1956 106.286L88.8789 94.0167C89.3215 93.8392 89.7951 93.7517 90.2719 93.7592C90.7487 93.7668 91.2192 93.8692 91.656 94.0606C92.0927 94.2519 92.487 94.5284 92.8158 94.8738C93.1445 95.2192 93.4012 95.6266 93.5707 96.0723L93.6396 96.2494C93.9589 97.0856 93.9537 98.0111 93.6252 98.8438C93.2967 99.6764 92.6684 100.356 91.8642 100.749L62.4251 115.217L91.5986 104.659C92.0605 104.491 92.5518 104.42 93.0422 104.45C93.5326 104.48 94.0116 104.611 94.4496 104.833C94.8876 105.056 95.2752 105.366 95.5884 105.745C95.9017 106.123 96.1339 106.562 96.2707 107.034C96.4997 107.822 96.4519 108.665 96.1351 109.422C95.8183 110.179 95.2517 110.804 94.5297 111.194L70.7611 124.035L93.8265 114.238C94.2754 114.047 94.7586 113.95 95.2465 113.952C95.7344 113.954 96.2167 114.056 96.6641 114.25C97.1115 114.445 97.5144 114.729 97.8484 115.084C98.1824 115.44 98.4405 115.86 98.6067 116.319L98.6608 116.476C98.9417 117.249 98.9485 118.095 98.6798 118.872C98.4112 119.649 97.8836 120.31 97.1854 120.745L80.8479 130.919C68.6812 138.467 59.3275 149.799 54.2219 163.175C50.7449 172.361 47.4892 184.469 45.6203 200.107Z" fill="#4A86F7"/>
<path d="M166.122 31.1096C174.713 31.1096 181.678 24.1454 181.678 15.5548C181.678 6.96411 174.713 0 166.122 0C157.531 0 150.566 6.96411 150.566 15.5548C150.566 24.1454 157.531 31.1096 166.122 31.1096Z" fill="#E0704A"/>
<path d="M581.556 31.1096C590.147 31.1096 597.111 24.1454 597.111 15.5548C597.111 6.96411 590.147 0 581.556 0C572.964 0 566 6.96411 566 15.5548C566 24.1454 572.964 31.1096 581.556 31.1096Z" fill="#AF4D2C"/>
<path d="M116.678 144.736C116.678 144.736 134.752 145.916 128.482 164.406C122.211 182.897 64.3214 180.512 61.41 229.665C58.4985 278.817 109.223 265.412 98.9982 241.836C88.7737 218.261 48.274 268.982 97.4244 295.72C146.575 322.457 151.212 298.705 150.539 292.966C149.865 287.227 132.77 281.566 128.482 302.403C124.193 323.239 162.317 348.408 242.535 299.649C322.752 250.89 351.989 296.959 348.699 303.977C345.409 310.994 318.424 313.414 333.758 274.878C349.093 236.343 423.02 238.743 426.163 265.461C429.305 292.179 390.261 274.406 415.24 241.856C440.218 209.305 461.085 185.887 521.153 189.049C581.222 192.211 560.36 228.568 553.72 226.989C547.081 225.411 534.752 207.702 553.406 185.887C572.06 164.072 619.626 185.105 627.849 192.152C636.072 199.199 715.552 241.089 740.215 180.015C764.879 118.942 688.537 116.577 703.021 154.959C717.504 193.342 816.174 204.289 869.421 176.106C922.668 147.922 972 165.926 972 165.926" stroke="#EBEEF2" stroke-width="4"/>
<path d="M145.766 89.5108L145.79 89.3633L145.805 89.4026L145.766 89.5108Z" fill="white"/>
<path d="M156.641 89.8139L156.69 89.7695L156.744 89.7893L156.641 89.8139Z" fill="#A5ADC5"/>
<path d="M155.713 90.3273C155.713 90.3815 155.757 90.3717 155.787 90.3815C155.816 90.3914 155.693 90.3815 155.609 90.4407L155.792 90.1992C155.728 90.2091 155.723 90.2978 155.713 90.3273Z" fill="#A5ADC5"/>
<path d="M155.414 90.3964L155.581 90.2734L155.552 90.4456L155.414 90.3964Z" fill="#A5ADC5"/>
<path opacity="0.3" d="M153.898 95.3351C153.969 95.1988 154.014 95.0503 154.031 94.8974C154.109 94.5925 154.399 94.8974 154.577 94.7351C155.068 94.2925 154.144 94.086 154.208 93.5893C154.296 93.3483 154.67 93.5893 154.645 93.2303C154.502 93.0015 154.299 92.8163 154.058 92.6949C153.817 92.5735 153.547 92.5206 153.278 92.5418C153.175 92.0796 153.691 91.8386 153.972 91.5583C153.586 91.4307 153.175 91.4053 152.777 91.4845C152.668 91.1993 152.373 91.0911 152.196 90.9042C152.333 90.2931 152.28 89.6548 152.044 89.0748C151.434 89.1584 150.888 88.6519 150.372 88.3962C150.372 88.2191 150.185 87.9929 150.003 88.0765C149.971 88.2763 149.878 88.4613 149.738 88.6065C149.597 88.7517 149.415 88.85 149.216 88.8879C148.98 88.8879 149.024 88.3273 148.724 88.5191C148.688 88.6752 148.61 88.8184 148.498 88.9329C148.386 89.0474 148.245 89.1289 148.09 89.1683C147.672 89.6256 147.647 88.7945 147.283 88.8732C147.121 89.301 147.283 89.7584 146.836 90.083C146.55 90.1912 146.413 89.9846 146.265 89.8076C145.773 89.9551 146.403 90.26 146.368 90.5206C146.19 90.657 145.985 90.7538 145.766 90.8047C145.547 90.8555 145.32 90.8593 145.1 90.8157C145.159 91.1452 145.705 91.1599 145.783 91.5239C145.621 91.7992 145.941 92.591 145.316 92.4533C145.1 92.7975 145.675 92.6451 145.729 92.9107C145.783 93.1762 145.39 93.0877 145.311 93.2156C145.645 93.0631 145.754 93.5893 145.955 93.786C146.005 94.2335 145.395 93.9778 145.286 94.3663C145.508 94.5089 145.857 94.0565 146.068 94.3171C145.7 94.7302 144.932 95.1531 144.947 95.8564C144.391 96.0482 143.688 96.3727 143.472 96.8399C143.472 97.076 143.383 97.4202 143.585 97.5235C144.411 97.2776 145.011 96.4022 146.044 96.3137C146.383 96.4711 146.536 95.9203 146.944 96.1858C147.352 96.4514 147.136 96.6776 146.944 96.9137C147.219 97.076 147.244 96.6875 147.436 96.6137C148.09 96.7317 147.244 97.2137 147.436 97.6808C147.509 97.6464 147.524 97.5284 147.563 97.4202C148.478 96.5989 147.996 98.0693 148.508 98.2611C148.709 98.212 148.636 97.912 148.862 97.8726C149.04 97.9213 149.202 98.0174 149.33 98.1508C149.459 98.2841 149.548 98.4497 149.59 98.63C150.145 98.5267 150.49 98.5955 150.804 97.8235C151.109 98.1529 151.527 97.848 151.734 98.2906C152.039 98.0349 151.832 97.3464 152.408 97.3071C152.9 97.1596 152.821 97.7644 153.214 97.848C153.667 97.6169 152.968 97.2678 152.963 96.9579C153.2 96.5745 153.528 96.2553 153.918 96.0285C154.34 96.0285 154.601 96.7416 154.901 96.2793C154.454 96.0629 154.272 95.5662 153.898 95.3351ZM152.319 96.5006C151.857 96.7121 151.645 96.2547 151.434 95.7924C150.942 97.1399 149.683 97.4399 148.552 97.4005C148.604 97.2214 148.589 97.0297 148.51 96.8606C148.432 96.6916 148.294 96.5567 148.124 96.4809L148.463 96.6088C147.799 96.4113 147.194 96.0551 146.698 95.5711C146.206 95.7088 145.685 95.9744 145.164 96.1318C145.026 96.2245 144.881 96.3067 144.731 96.3776C144.881 96.3067 145.026 96.2245 145.164 96.1318C144.916 96.2141 144.657 96.254 144.396 96.2498C144.657 96.254 144.916 96.2141 145.164 96.1318C145.667 95.8099 146.03 95.3096 146.179 94.7313C146.329 94.1529 146.254 93.5394 145.97 93.0139C145.759 92.5566 146.678 92.1336 147.136 91.9222L146.467 91.6714C149.845 88.7207 150.854 89.0896 153.352 92.6844C152.801 92.0992 153.101 93.3532 152.432 93.1074C152.644 93.5647 153.224 93.0188 153.563 93.1418C152.516 93.904 153.362 95.7433 152.319 96.5006Z" fill="white"/>
<path d="M153.563 93.1411C153.224 93.0182 152.644 93.564 152.432 93.1067C153.101 93.3526 152.801 92.0985 153.352 92.6837C150.858 89.0889 149.85 88.72 146.467 91.6707L147.135 91.9215C146.678 92.133 145.758 92.5559 145.97 93.0132C146.254 93.5387 146.329 94.1522 146.179 94.7306C146.03 95.3089 145.667 95.8093 145.163 96.1311C145.685 95.9737 146.201 95.7081 146.698 95.5704C146.561 95.4244 146.446 95.2586 146.358 95.0787C146.446 95.2586 146.561 95.4244 146.698 95.5704C147.018 95.469 147.361 95.469 147.681 95.5704C147.361 95.469 147.018 95.469 146.698 95.5704C147.193 96.0544 147.799 96.4106 148.463 96.6081L148.124 96.4802C148.294 96.556 148.431 96.6909 148.51 96.8599C148.589 97.029 148.604 97.2207 148.552 97.3998C149.683 97.4392 150.937 97.1392 151.434 95.7917C151.645 96.254 151.857 96.7114 152.319 96.4999C153.362 95.7426 152.516 93.9033 153.563 93.1411Z" fill="#2448B1"/>
<path d="M163.309 102.179L163.062 102.036L163.141 102.031L163.309 102.179Z" fill="white"/>
<path d="M171.471 82.7475L171.422 82.6344L171.496 82.5508L171.471 82.7475Z" fill="#A5ADC5"/>
<path d="M171.762 84.7721C171.845 84.8458 171.88 84.7278 171.914 84.6836C171.983 84.5262 171.845 84.8458 171.914 85.0425L171.609 84.5508C171.55 84.6688 171.713 84.7376 171.762 84.7721Z" fill="#A5ADC5"/>
<path opacity="0.3" d="M221.851 74.3014C221.851 72.7867 219.987 71.6065 219.722 70.082L215.846 67.4166C214.73 68.0067 213.009 67.5444 211.283 67.0822C214.917 73.3867 212.01 79.2634 208.189 83.5615C207.659 82.7803 206.865 82.2159 205.954 81.9712C205.042 81.7266 204.072 81.818 203.222 82.2288L204.319 81.5944C201.86 82.9959 198.584 84.7319 195.019 84.845C193.937 87.2252 193.297 90.107 192.225 92.6396C192.884 86.3007 189.275 81.1469 182.684 79.3617C180.201 78.6929 181.534 73.726 182.193 71.2426L179.04 73.0572C178.666 57.1877 180.845 51.0553 189.678 49.4521L183.86 45.4688C182.276 46.1621 180.501 46.6047 179.05 47.2588C178.362 46.6441 176.862 46.6687 176.591 47.6621C178.204 49.5849 178.066 51.3553 177.191 53.3617C176.33 54.1977 174.388 52.2896 174.108 54.1289C174.606 54.776 174.916 55.5485 175.003 56.3609C175.09 57.1734 174.95 57.994 174.599 58.7319C175.042 61.835 171.693 59.2236 170.817 60.9104C171.978 62.9267 174.309 63.7676 174.088 66.5855C173.596 68.0608 172.342 67.928 171.171 67.928C170.075 70.3869 173.375 68.8378 174.28 69.8312C173.965 72.1966 173.07 74.7243 171.304 75.7324C172.78 76.5586 174.619 74.4932 176.301 75.3735C176.852 76.9029 180.968 78.2208 178.416 80.1978C179.055 82.1648 180.324 79.4355 181.539 80.0748C182.566 80.9944 181.13 81.9927 181.366 82.696C181.858 80.9059 184.268 82.2042 185.694 82.0468C187.593 83.3008 184.622 84.8499 185.763 86.5416C187.047 86.1335 186.422 83.3058 188.119 83.3353C188.547 86.1138 187.691 90.466 190.499 92.7085C189.427 95.5116 188.414 99.2884 189.471 101.703C190.302 102.564 191.439 103.931 192.506 103.473C194.227 99.4654 192.747 94.2723 195.683 90.0578C197.399 89.2365 195.82 86.7875 198.142 86.1236C200.271 85.74 200.601 86.8908 200.896 88.5825C202.43 88.0366 200.979 86.6892 201.388 85.6318C203.994 83.4582 203.114 88.3366 205.568 89.0743C205.676 88.6759 205.263 88.2432 204.968 87.7366C204.732 81.5009 208.902 88.1596 211.302 86.7777C211.765 85.8384 210.358 85.1401 210.948 84.127C212.424 82.932 214.661 82.9959 216.269 83.7434C217.686 81.2501 219.053 80.1289 217.071 76.3963C219.294 76.2783 219.466 73.6473 221.851 74.3014Z" fill="white"/>
<path d="M211.282 67.0832C214.916 73.3877 212.01 79.2644 208.188 83.5625C207.658 82.7814 206.864 82.2169 205.953 81.9723C205.041 81.7276 204.071 81.819 203.221 82.2298L204.318 81.5954C201.859 82.997 198.583 84.7329 195.018 84.846C193.936 87.2262 193.297 90.108 192.224 92.6406C192.883 86.3017 189.274 81.1479 182.684 79.3628C180.2 78.694 181.533 73.727 182.192 71.2436L179.039 73.0582C178.666 57.1887 180.844 51.0563 189.677 49.4531L215.836 67.4028C214.729 68.0077 213.008 67.5455 211.282 67.0832Z" fill="#2448B1"/>
</svg>
