<svg width="84" height="72" viewBox="0 0 84 72" fill="none" xmlns="http://www.w3.org/2000/svg">
<path opacity="0.05" fill-rule="evenodd" clip-rule="evenodd" d="M84 11.2451C71.4187 17.4924 65.1281 24.8329 65.1281 33.2668C70.4907 33.8915 74.925 36.1041 78.4313 39.9046C81.9375 43.705 83.6906 48.1041 83.6906 53.102C83.6906 58.4122 81.9891 62.8894 78.5859 66.5336C75.1828 70.1779 70.9032 72 65.7469 72C59.9718 72 54.9703 69.6313 50.7422 64.8937C46.514 60.1562 44.4 54.4035 44.4 47.6356C44.4 27.3318 55.6405 11.4534 78.1219 0L84 11.2451ZM39.6 11.2451C26.9156 17.4924 20.5734 24.8329 20.5734 33.2668C26.0391 33.8915 30.525 36.1041 34.0312 39.9046C37.5375 43.705 39.2906 48.1041 39.2906 53.102C39.2906 58.4122 37.5633 62.8894 34.1086 66.5336C30.6539 70.1779 26.3485 72 21.1922 72C15.4172 72 10.4414 69.6313 6.26484 64.8937C2.08826 60.1562 0 54.4035 0 47.6356C0 27.3318 11.189 11.4534 33.5672 0L39.6 11.2451Z" fill="white"/>
</svg>
